<?xml version="1.0" standalone="no"?><!DOCTYPE svg PUBLIC "-//W3C//DTD SVG 1.1//EN" "http://www.w3.org/Graphics/SVG/1.1/DTD/svg11.dtd"><svg t="1749657001849" class="icon" viewBox="0 0 1024 1024" version="1.1" xmlns="http://www.w3.org/2000/svg" p-id="4021" xmlns:xlink="http://www.w3.org/1999/xlink" width="200" height="200"><path d="M512 0C229.236364 0 0 229.236364 0 512s229.236364 512 512 512 512-229.236364 512-512S794.763636 0 512 0z m244.363636 779.636364c0 12.8-10.472727 23.272727-23.272727 23.272727H349.090909c-38.4 0-69.818182-31.418182-69.818182-69.818182V292.072727c0-51.2 41.890909-94.254545 93.090909-94.254545h360.727273c12.8 1.163636 23.272727 11.636364 23.272727 24.436363V779.636364z" fill="#1296db" p-id="4022"></path><path d="M349.090909 698.181818c-19.781818 0-34.909091 15.127273-34.909091 34.909091s15.127273 34.909091 34.909091 34.909091h372.363636c-6.981818-10.472727-10.472727-22.109091-11.636363-34.909091 1.163636-12.8 4.654545-24.436364 11.636363-34.909091H349.090909zM651.636364 523.636364l-69.818182-46.545455-69.818182 46.545455V232.727273H360.727273c-25.6 0-46.545455 20.945455-46.545455 46.545454v393.309091c10.472727-5.818182 22.109091-9.309091 34.909091-9.309091h372.363636V232.727273h-69.818181v290.909091z" fill="#1296db" p-id="4023"></path></svg>