<svg class="icon" viewBox="0 0 1024 1024" xmlns="http://www.w3.org/2000/svg" width="16" height="16"><path d="M434.287 669.52 284.185 511.739a31.25 31.25 0 0 1 1.024-44.232 31.25 31.25 0 0 1 44.232 1.024l106.792 112.32a31.342 31.342 0 0 0 44.231 1.126l215.631-205.391a31.25 31.25 0 0 1 44.232 1.126 31.25 31.25 0 0 1-1.024 44.231l-260.783 248.6c-12.594 11.878-32.355 11.468-44.232-1.023" fill="#74BEFF"/><path d="m510.567 1023.989-6.86-1.536a645.171 645.171 0 0 1-356.416-219.93 314.507 314.507 0 0 1-68.292-199.658V164.538c0-15.052 10.648-27.952 25.391-30.82A1615.737 1615.737 0 0 0 492.751 6.144l6.45-3.071a31.496 31.496 0 0 1 27.134 0 1531.567 1531.567 0 0 0 391.124 129.93l2.15.308a31.229 31.229 0 0 1 26.723 31.024v433.104a316.247 316.247 0 0 1-65.938 196.483 645.51 645.51 0 0 1-363.172 228.328l-6.655 1.74zM166.439 184.812c-14.335 3.174-24.574 15.768-24.676 30.41v387.54a252.664 252.664 0 0 0 54.265 160.034c78.84 96.04 186.348 164.436 306.757 194.948a31.228 31.228 0 0 0 15.666 0 582.459 582.459 0 0 0 312.9-202.525c34.606-45.154 53.139-100.649 52.422-157.576v-381.91a31.32 31.32 0 0 0-24.777-30.41A1596.403 1596.403 0 0 1 525.515 72.286a31.41 31.41 0 0 0-26.109 0c-106.79 49.147-218.395 86.826-332.967 112.526" fill="#333"/></svg>